<svg width="24" height="24" viewBox="0 0 24 24" fill="none" xmlns="http://www.w3.org/2000/svg">
<path d="M12.0719 6.87519C11.3972 6.87329 10.7287 7.00447 10.1049 7.26121C9.48118 7.51794 8.91448 7.89514 8.43742 8.37113C7.96036 8.84711 7.58236 9.41248 7.32516 10.0347C7.06797 10.6569 6.93665 11.3238 6.93877 11.9968C6.93686 12.6696 7.06835 13.3362 7.32566 13.9581C7.58297 14.5801 7.96103 15.1452 8.43809 15.6209C8.91514 16.0965 9.48179 16.4735 10.1054 16.7299C10.7291 16.9864 11.3974 17.1173 12.0719 17.1152C12.7464 17.1171 13.4145 16.986 14.0379 16.7294C14.6614 16.4729 15.2279 16.0959 15.7047 15.6203C16.1816 15.1446 16.5595 14.5796 16.8168 13.9578C17.074 13.3359 17.2054 12.6695 17.2035 11.9968C17.2058 11.3238 17.0747 10.6571 16.8177 10.0348C16.5607 9.41261 16.1828 8.84723 15.7059 8.37122C15.2289 7.89522 14.6624 7.51798 14.0387 7.26123C13.415 7.00448 12.7466 6.87329 12.0719 6.87519ZM12.0719 15.2752C11.1998 15.2752 10.3634 14.9296 9.74666 14.3145C9.12996 13.6994 8.7835 12.8651 8.7835 11.9952C8.7835 11.1253 9.12996 10.291 9.74666 9.67588C10.3634 9.06076 11.1998 8.71519 12.0719 8.71519C12.9441 8.71519 13.7805 9.06076 14.3972 9.67588C15.0139 10.291 15.3604 11.1253 15.3604 11.9952C15.3604 12.8651 15.0139 13.6994 14.3972 14.3145C13.7805 14.9296 12.9441 15.2752 12.0719 15.2752ZM20.0925 3.99999C19.592 3.50079 18.6761 3.60319 18.0505 4.22719C17.4249 4.85279 17.3238 5.76159 17.8243 6.26239C18.3248 6.76319 19.2391 6.66239 19.8663 6.03679C20.4919 5.41279 20.593 4.49919 20.0925 3.99999ZM4.27915 17.9664C3.65194 18.5904 3.55088 19.5008 4.05137 20C4.55185 20.4992 5.46619 20.4 6.0934 19.7744C6.72061 19.1488 6.82167 18.2368 6.32119 17.7376C5.8207 17.2384 4.90475 17.3408 4.27915 17.9664ZM4.05137 3.99999C3.55088 4.49919 3.65194 5.41279 4.27755 6.03679C4.90475 6.66239 5.8191 6.76159 6.31958 6.26239C6.82007 5.76319 6.71901 4.84959 6.0918 4.22559C5.4678 3.60319 4.55185 3.50079 4.05137 3.99999ZM18.0505 19.7712C18.6761 20.3968 19.5904 20.4992 20.0925 20C20.5946 19.5008 20.4919 18.5872 19.8647 17.9616C19.2375 17.336 18.3248 17.2368 17.8227 17.736C17.3206 18.2352 17.4249 19.1472 18.0505 19.7712ZM12.0719 3.99679C12.7793 3.99679 13.3552 3.28159 13.3552 2.39679C13.3536 1.51199 12.7793 0.799988 12.0719 0.799988C11.3629 0.799988 10.787 1.51199 10.787 2.39679C10.787 3.28159 11.3613 3.99679 12.0719 3.99679ZM12.0719 23.2C12.7793 23.2 13.3552 22.4848 13.3552 21.6C13.3552 20.7152 12.781 20.0032 12.0735 20.0032C11.3645 20.0032 10.7886 20.7152 10.7886 21.6C10.787 22.4848 11.3613 23.2 12.0719 23.2ZM4.05137 12C4.05137 11.2944 3.32951 10.72 2.44244 10.72C1.55537 10.72 0.84314 11.2944 0.84314 12C0.84314 12.7072 1.55537 13.28 2.44244 13.28C3.32951 13.28 4.05137 12.7072 4.05137 12ZM23.3007 12C23.3007 11.2944 22.5821 10.72 21.695 10.72C20.8079 10.72 20.0925 11.2944 20.0925 12C20.0925 12.7072 20.8079 13.28 21.695 13.28C22.5821 13.28 23.3007 12.7072 23.3007 12Z" fill="white"/>
</svg>
