<svg width="38" height="38" viewBox="0 0 38 38" fill="none" xmlns="http://www.w3.org/2000/svg">
<path d="M19 10.6722C17.9063 10.6691 16.8228 10.8823 15.8118 11.2995C14.8008 11.7167 13.8823 12.3296 13.1091 13.1031C12.3358 13.8766 11.7232 14.7953 11.3063 15.8064C10.8894 16.8175 10.6766 17.9011 10.68 18.9948C10.6769 20.0881 10.89 21.1713 11.3071 22.182C11.7242 23.1927 12.3369 24.1109 13.1102 24.8839C13.8834 25.6569 14.8018 26.2694 15.8126 26.6861C16.8234 27.1028 17.9067 27.3156 19 27.3122C20.0931 27.3153 21.1761 27.1022 22.1866 26.6854C23.1971 26.2685 24.1152 25.6559 24.8882 24.883C25.6612 24.11 26.2737 23.1919 26.6906 22.1814C27.1075 21.1709 27.3205 20.0879 27.3174 18.9948C27.3212 17.9012 27.1087 16.8177 26.6921 15.8066C26.2755 14.7955 25.6631 13.8768 24.89 13.1032C24.117 12.3297 23.1987 11.7167 22.1878 11.2995C21.177 10.8823 20.0936 10.6691 19 10.6722V10.6722ZM19 24.3222C17.5864 24.3222 16.2307 23.7606 15.2311 22.7611C14.2316 21.7615 13.67 20.4058 13.67 18.9922C13.67 17.5786 14.2316 16.2229 15.2311 15.2233C16.2307 14.2237 17.5864 13.6622 19 13.6622C20.4136 13.6622 21.7693 14.2237 22.7689 15.2233C23.7685 16.2229 24.33 17.5786 24.33 18.9922C24.33 20.4058 23.7685 21.7615 22.7689 22.7611C21.7693 23.7606 20.4136 24.3222 19 24.3222ZM32 5.99999C31.1888 5.18879 29.7042 5.35519 28.6902 6.36919C27.6762 7.38579 27.5124 8.86259 28.3236 9.67639C29.1348 10.4902 30.6168 10.3264 31.6334 9.30979C32.6474 8.29579 32.8112 6.81119 32 5.99999V5.99999ZM6.36922 28.6954C5.35262 29.7094 5.18882 31.1888 6.00002 32C6.81122 32.8112 8.29322 32.65 9.30982 31.6334C10.3264 30.6168 10.4902 29.1348 9.67902 28.3236C8.86782 27.5124 7.38322 27.6788 6.36922 28.6954V28.6954ZM6.00002 5.99999C5.18882 6.81119 5.35262 8.29579 6.36662 9.30979C7.38322 10.3264 8.86522 10.4876 9.67642 9.67639C10.4876 8.86519 10.3238 7.38059 9.30722 6.36659C8.29582 5.35519 6.81122 5.18879 6.00002 5.99999ZM28.6902 31.6282C29.7042 32.6448 31.1862 32.8112 32 32C32.8138 31.1888 32.6474 29.7042 31.6308 28.6876C30.6142 27.671 29.1348 27.5098 28.321 28.321C27.5072 29.1322 27.6762 30.6142 28.6902 31.6282ZM19 5.99479C20.1466 5.99479 21.08 4.83259 21.08 3.39479C21.0774 1.95699 20.1466 0.799988 19 0.799988C17.8508 0.799988 16.9174 1.95699 16.9174 3.39479C16.9174 4.83259 17.8482 5.99479 19 5.99479ZM19 37.2C20.1466 37.2 21.08 36.0378 21.08 34.6C21.08 33.1622 20.1492 32.0052 19.0026 32.0052C17.8534 32.0052 16.92 33.1622 16.92 34.6C16.9174 36.0378 17.8482 37.2 19 37.2V37.2ZM6.00002 19C6.00002 17.8534 4.83002 16.92 3.39222 16.92C1.95442 16.92 0.800018 17.8534 0.800018 19C0.800018 20.1492 1.95442 21.08 3.39222 21.08C4.83002 21.08 6.00002 20.1492 6.00002 19ZM37.2 19C37.2 17.8534 36.0352 16.92 34.5974 16.92C33.1596 16.92 32 17.8534 32 19C32 20.1492 33.1596 21.08 34.5974 21.08C36.0352 21.08 37.2 20.1492 37.2 19Z" fill="#8E88C1"/>
</svg>
